# xmcd
#
# Track frame offsets: 
#        150
#        14467
#        34509
#        57453
#        80962
#        104144
#        130722
#        150300
#        172109
#        192886
#        230414
#        244107
#
# Disc length: 3473 seconds
#
# Revision: 2
# Processed by: cddbd v1.5.2PL0 Copyright (c) Steve Scherf et al.
# Submitted via: ExactAudioCopy v0.99pb4
#
DISCID=9e0d8f0c
DTITLE=Lari White - Green Eyed Soul
DYEAR=2004
DGENRE=Other
TTITLE0=Nothing But Love
TTITLE1=Eden Before The Fall
TTITLE2=Right Here Right Now
TTITLE3=Loved Right.
TTITLE4=Let's Keep It Together
TTITLE5=High
TTITLE6=One More Time
TTITLE7=Because I'm A Woman
TTITLE8=We Got It Goin' On
TTITLE9=Grove W-Me Baby
TTITLE10=Bare
TTITLE11=Amazing Grace
EXTD=
EXTT0=
EXTT1=
EXTT2=
EXTT3=
EXTT4=
EXTT5=
EXTT6=
EXTT7=
EXTT8=
EXTT9=
EXTT10=
EXTT11=
PLAYORDER=
